<svg width="189" height="29" viewBox="0 0 189 29" fill="none" xmlns="http://www.w3.org/2000/svg">
    <path d="M29.7604 12.7526C29.4251 12.9719 29.1634 13.2868 29.0091 13.6565L23.0467 27.949C22.7147 28.7446 21.5989 28.7755 21.2235 27.9993L15.8318 16.8508L11.1644 27.9465C10.8298 28.742 9.71233 28.7685 9.34032 27.9898L2.46085 13.5896C2.34504 13.3472 2.18157 13.1306 1.98021 12.9527L1.08975 12.1662C0.744571 11.8614 0.960209 11.2915 1.42074 11.2915H10.3233C10.7681 11.2915 10.9915 11.8288 10.6778 12.1441L10.1617 12.6628C9.86691 12.9591 9.78748 13.4075 9.96255 13.787L12.9415 20.2448C13.0074 20.3877 13.1505 20.4793 13.3078 20.4793V20.4793C13.4721 20.4793 13.62 20.3797 13.6817 20.2274L15.2341 16.3977C15.3405 16.1351 15.3306 15.8398 15.2068 15.585L14.0966 13.3002C14.0395 13.1828 13.96 13.0777 13.8626 12.9908L12.936 12.1647C12.5932 11.859 12.8094 11.2915 13.2688 11.2915H22.5393C23.0171 11.2915 23.2227 11.8974 22.8436 12.1882L22.132 12.734C21.7601 13.0193 21.6363 13.5246 21.8341 13.9495L24.765 20.2454C24.8314 20.3881 24.9745 20.4793 25.1318 20.4793V20.4793C25.2963 20.4793 25.4444 20.3797 25.5065 20.2274L28.11 13.8438C28.2892 13.4044 28.1349 12.8995 27.7407 12.6354L27.1011 12.2068C26.6907 11.9318 26.8853 11.2915 27.3794 11.2915H30.3166C30.8136 11.2915 31.0062 11.9379 30.5903 12.2099L29.7604 12.7526ZM39.0427 29.0013C33.6108 29.0013 29.1726 24.8069 29.1726 19.7136C29.1726 14.7203 33.6108 10.6257 39.0427 10.6257C44.5407 10.6257 48.8465 14.7203 48.8465 19.7136C48.8465 24.8069 44.5407 29.0013 39.0427 29.0013ZM39.0427 28.4354C40.9637 28.4354 41.8911 25.8388 41.8911 19.7469C41.8911 14.0212 41.0299 11.1916 39.0427 11.1916C37.0885 11.1916 36.128 13.7549 36.128 19.7469C36.128 25.5725 36.9892 28.4354 39.0427 28.4354ZM64.8029 28.5725C64.167 28.57 63.5702 28.2653 63.1953 27.7516L58.0381 20.6857C57.7529 20.2949 57.1342 20.4967 57.1342 20.9805V26.2386C57.1342 26.691 57.2877 27.1301 57.5694 27.4841L57.8133 27.7904C58.074 28.118 57.8407 28.6018 57.4221 28.6018H50.1231C49.7044 28.6018 49.4712 28.118 49.7319 27.7904L50.1933 27.2107C50.3342 27.0337 50.4109 26.8142 50.4109 26.588V5.46875C50.4109 5.15275 50.2616 4.85534 50.0081 4.66664L49.3484 4.1755C49.0329 3.9406 49.0996 3.45019 49.4665 3.30817L55.7732 0.866331C56.4285 0.612603 57.1342 1.09614 57.1342 1.79887V18.1195C57.1342 18.6322 57.5499 19.0478 58.0625 19.0478V19.0478C58.6271 19.0478 59.161 18.7909 59.5133 18.3497L64.549 12.0435C64.9285 11.5682 65.5037 11.2915 66.1119 11.2915H69.7622C70.2565 11.2915 70.451 11.9323 70.0401 12.2071L64.0782 16.1938C63.5995 16.514 63.4894 17.1713 63.8378 17.6299L71.5587 27.7954C71.8093 28.1253 71.5728 28.5994 71.1585 28.5978L64.8029 28.5725ZM82.8218 24.3408C84.2388 24.3408 85.3388 23.8784 86.1786 22.9593C86.4486 22.6639 87.1515 22.8972 87.0177 23.2743C85.7498 26.847 82.9907 29.0013 79.4104 29.0013C74.376 29.0013 70.8983 25.5059 70.8983 20.446C70.8983 14.7203 74.5416 10.6257 79.7747 10.6257C84.0804 10.6257 87.0945 13.2888 87.0945 17.1504V17.1504C87.0945 17.3526 86.9305 17.5165 86.7283 17.5165H78.5225C77.9702 17.5165 77.5167 17.9658 77.5705 18.5154C77.8991 21.8774 79.8923 24.3408 82.8218 24.3408ZM79.7747 11.2249C78.6445 11.2249 77.8081 12.9967 77.5772 15.8893C77.5324 16.4509 77.9879 16.9173 78.5513 16.9173H80.2384C81.2652 16.9173 81.497 16.1184 81.497 15.153C81.497 12.7562 80.8677 11.2249 79.7747 11.2249ZM115.573 12.7526C115.238 12.9719 114.976 13.2868 114.822 13.6565L108.86 27.949C108.528 28.7446 107.412 28.7755 107.037 27.9993L102.127 17.8471C101.939 17.4597 101.383 17.4743 101.216 17.8709L96.9774 27.9465C96.6428 28.742 95.5253 28.7685 95.1533 27.9898L88.2739 13.5896C88.1581 13.3472 87.9946 13.1306 87.7932 12.9527L86.9028 12.1662C86.5576 11.8614 86.7732 11.2915 87.2338 11.2915H96.1363C96.5812 11.2915 96.8045 11.8288 96.4908 12.1441L95.9747 12.6628C95.6799 12.9591 95.6005 13.4075 95.7756 13.787L98.7545 20.2448C98.8205 20.3877 98.9635 20.4793 99.1208 20.4793V20.4793C99.2851 20.4793 99.433 20.3797 99.4947 20.2274L101.047 16.3977C101.154 16.1351 101.144 15.8398 101.02 15.585L99.9096 13.3002C99.8525 13.1828 99.7731 13.0777 99.6756 12.9908L98.7491 12.1647C98.4062 11.859 98.6224 11.2915 99.0818 11.2915H108.352C108.83 11.2915 109.036 11.8974 108.657 12.1882L107.945 12.734C107.573 13.0193 107.449 13.5246 107.647 13.9495L110.578 20.2454C110.644 20.3881 110.787 20.4793 110.945 20.4793V20.4793C111.109 20.4793 111.257 20.3797 111.32 20.2274L113.923 13.8438C114.102 13.4044 113.948 12.8995 113.554 12.6354L112.914 12.2068C112.504 11.9318 112.698 11.2915 113.192 11.2915H116.13C116.627 11.2915 116.819 11.9379 116.403 12.2099L115.573 12.7526ZM124.856 29.0013C119.424 29.0013 114.986 24.8069 114.986 19.7136C114.986 14.7203 119.424 10.6257 124.856 10.6257C130.354 10.6257 134.66 14.7203 134.66 19.7136C134.66 24.8069 130.354 29.0013 124.856 29.0013ZM124.856 28.4354C126.777 28.4354 127.704 25.8388 127.704 19.7469C127.704 14.0212 126.843 11.1916 124.856 11.1916C122.902 11.1916 121.941 13.7549 121.941 19.7469C121.941 25.5725 122.802 28.4354 124.856 28.4354ZM148.18 10.6257C150.101 10.6257 151.459 12.0238 151.459 14.0212C151.459 15.9187 150.366 17.2169 148.776 17.2169C145.961 17.2169 145.828 13.6883 144.702 13.6883C144.172 13.6883 143.543 14.3541 143.079 15.1863V26.5365C143.079 26.7938 143.178 27.0412 143.356 27.2272L143.862 27.7565C144.165 28.0746 143.94 28.6018 143.5 28.6018H136.068C135.649 28.6018 135.416 28.118 135.677 27.7904L136.138 27.2107C136.279 27.0337 136.356 26.8142 136.356 26.588V15.5503C136.356 15.2609 136.209 14.9912 135.967 14.8332V14.8332C135.382 14.4525 135.475 13.57 136.125 13.3181L142.064 11.0188C142.553 10.8295 143.079 11.1902 143.079 11.7144V11.7144C143.079 12.4589 144.135 12.7989 144.671 12.2826C145.745 11.2488 146.948 10.6257 148.18 10.6257ZM166.32 28.5725C165.684 28.57 165.088 28.2653 164.713 27.7516L159.556 20.6857C159.27 20.2949 158.652 20.4967 158.652 20.9805V26.2386C158.652 26.691 158.805 27.1301 159.087 27.4841L159.331 27.7904C159.591 28.118 159.358 28.6018 158.94 28.6018H151.64C151.222 28.6018 150.988 28.118 151.249 27.7904L151.711 27.2107C151.851 27.0337 151.928 26.8142 151.928 26.588V5.46875C151.928 5.15275 151.779 4.85534 151.525 4.66664L150.866 4.1755C150.55 3.9406 150.617 3.4502 150.984 3.30818L157.291 0.866314C157.946 0.612592 158.652 1.09613 158.652 1.79886V18.1195C158.652 18.6322 159.067 19.0478 159.58 19.0478V19.0478C160.145 19.0478 160.679 18.7909 161.031 18.3497L166.066 12.0435C166.446 11.5682 167.021 11.2915 167.629 11.2915H171.28C171.774 11.2915 171.969 11.9323 171.558 12.2071L165.596 16.1938C165.117 16.514 165.007 17.1713 165.355 17.6299L173.076 27.7954C173.327 28.1253 173.09 28.5994 172.676 28.5978L166.32 28.5725ZM173.993 24.3456C173.944 23.9536 174.802 23.6878 175.026 24.013C176.591 26.2797 179.025 28.3355 181.627 28.3355C183.25 28.3355 184.343 27.4367 184.343 26.1051C184.343 22.2103 173.976 23.9746 173.976 17.2835C173.976 13.422 177.222 10.6257 181.859 10.6257C183.653 10.6257 185.251 10.8964 186.591 11.2897C186.973 11.4019 187.225 11.7587 187.225 12.157V12.157L187.662 15.5625C187.709 15.925 187.183 16.1025 186.982 15.7968C185.131 12.9742 182.944 11.2915 180.733 11.2915C179.11 11.2915 177.984 12.157 177.984 13.422C177.984 17.0505 188.417 15.3527 188.417 22.5099C188.417 26.3382 185.469 29.0013 180.866 29.0013C179.093 29.0013 176.899 28.7894 175.059 28.4365C174.677 28.3633 174.407 28.0254 174.407 27.6364V27.6364L173.993 24.3456Z" fill="white"/>
</svg>
